<svg id="svg" xmlns="http://www.w3.org/2000/svg" xmlns:xlink="http://www.w3.org/1999/xlink" width="400" height="115.97222222222221" viewBox="0, 0, 400,115.97222222222221"><g id="svgg"><path id="path0" d="M41.500 0.167 C 41.500 0.258,41.162 0.333,40.750 0.333 C 40.333 0.333,40.000 0.412,40.000 0.510 C 40.000 0.607,40.094 0.632,40.208 0.566 C 40.329 0.497,40.358 0.510,40.278 0.598 C 40.201 0.682,40.089 0.751,40.028 0.753 C 39.811 0.758,39.496 1.025,39.568 1.142 C 39.609 1.208,39.446 1.259,39.206 1.256 C 38.909 1.252,38.740 1.356,38.676 1.583 C 38.623 1.776,38.443 1.915,38.250 1.914 C 38.057 1.912,37.877 2.052,37.822 2.247 C 37.767 2.445,37.613 2.563,37.447 2.534 C 37.260 2.502,37.167 2.598,37.167 2.826 C 37.167 3.056,37.058 3.167,36.833 3.167 C 36.618 3.167,36.500 3.278,36.500 3.481 C 36.500 3.654,36.351 3.833,36.167 3.882 C 35.911 3.948,35.833 4.109,35.833 4.568 C 35.833 5.056,35.771 5.167,35.500 5.167 C 35.244 5.167,35.167 5.278,35.167 5.646 C 35.167 6.127,34.816 6.594,34.610 6.387 C 34.549 6.327,34.500 6.515,34.500 6.806 C 34.500 7.167,34.420 7.333,34.246 7.333 C 33.980 7.333,33.628 8.044,33.705 8.426 C 33.730 8.548,33.600 8.765,33.417 8.908 C 33.104 9.151,33.103 9.161,33.402 9.055 C 33.623 8.978,33.684 9.004,33.601 9.138 C 33.535 9.246,33.369 9.333,33.233 9.333 C 33.097 9.333,32.998 9.427,33.012 9.542 C 33.116 10.340,32.984 10.833,32.667 10.833 C 32.389 10.833,32.333 10.944,32.333 11.500 C 32.333 11.959,32.261 12.167,32.101 12.167 C 31.834 12.167,31.667 12.521,31.667 13.086 C 31.667 13.331,31.542 13.517,31.333 13.583 C 31.074 13.666,31.000 13.836,31.000 14.345 C 31.000 14.870,30.939 15.000,30.694 15.000 C 30.456 15.000,30.382 15.137,30.364 15.613 C 30.342 16.198,30.078 16.568,29.805 16.399 C 29.685 16.325,29.581 16.632,29.463 17.417 C 29.435 17.600,29.301 17.750,29.164 17.750 C 29.009 17.750,28.898 17.944,28.866 18.274 C 28.838 18.563,28.669 18.930,28.491 19.092 C 28.313 19.253,28.167 19.468,28.167 19.569 C 28.167 19.670,28.034 19.836,27.872 19.937 C 27.709 20.039,27.560 20.325,27.539 20.573 C 27.519 20.821,27.380 21.188,27.230 21.387 C 27.038 21.644,26.988 21.665,27.058 21.458 C 27.112 21.298,27.081 21.167,26.989 21.167 C 26.897 21.167,26.835 21.410,26.851 21.708 C 26.896 22.563,26.856 22.667,26.481 22.667 C 26.200 22.667,26.143 22.747,26.203 23.059 C 26.263 23.374,26.209 23.448,25.932 23.434 C 25.741 23.425,25.579 23.492,25.571 23.583 C 25.521 24.153,25.258 24.647,24.964 24.724 C 24.722 24.788,24.648 24.909,24.709 25.142 C 24.768 25.370,24.697 25.497,24.480 25.554 C 24.293 25.602,24.124 25.841,24.064 26.137 C 24.005 26.433,23.835 26.671,23.649 26.720 C 23.466 26.767,23.333 26.949,23.333 27.151 C 23.333 27.343,23.183 27.650,23.000 27.833 C 22.817 28.017,22.667 28.317,22.667 28.500 C 22.667 28.722,22.556 28.833,22.333 28.833 C 22.093 28.833,22.000 28.944,22.000 29.231 C 22.000 29.483,21.883 29.658,21.678 29.712 C 21.468 29.767,21.317 30.000,21.246 30.377 C 21.171 30.777,21.051 30.952,20.860 30.937 C 20.675 30.923,20.588 31.040,20.597 31.292 C 20.604 31.498,20.548 31.676,20.472 31.688 C 20.396 31.699,20.240 31.718,20.125 31.730 C 20.010 31.742,19.915 31.928,19.913 32.144 C 19.910 32.359,19.742 32.671,19.538 32.836 C 19.334 33.002,19.167 33.256,19.167 33.402 C 19.167 33.558,19.026 33.667,18.823 33.667 C 18.635 33.667,18.523 33.736,18.575 33.820 C 18.627 33.904,18.560 34.083,18.426 34.217 C 18.292 34.351,18.233 34.511,18.295 34.572 C 18.356 34.634,18.278 34.635,18.120 34.574 C 17.908 34.493,17.833 34.551,17.833 34.796 C 17.833 34.989,17.692 35.165,17.495 35.216 C 17.309 35.265,17.172 35.367,17.189 35.444 C 17.262 35.758,16.948 36.500,16.743 36.500 C 16.622 36.500,16.475 36.650,16.417 36.833 C 16.358 37.017,16.166 37.167,15.989 37.167 C 15.778 37.167,15.667 37.282,15.667 37.500 C 15.667 37.728,15.556 37.833,15.314 37.833 C 15.043 37.833,14.981 37.911,15.048 38.167 C 15.106 38.388,15.053 38.500,14.891 38.500 C 14.757 38.500,14.693 38.574,14.749 38.665 C 14.807 38.759,14.740 38.787,14.592 38.730 C 14.421 38.665,14.333 38.727,14.333 38.914 C 14.333 39.070,14.183 39.237,14.000 39.285 C 13.817 39.333,13.667 39.505,13.667 39.667 C 13.667 39.829,13.515 40.001,13.329 40.050 C 13.143 40.098,13.011 40.211,13.037 40.301 C 13.062 40.391,12.505 41.074,11.799 41.820 C 10.978 42.685,10.548 43.265,10.609 43.423 C 10.676 43.599,10.626 43.641,10.435 43.567 C 10.258 43.500,10.167 43.554,10.167 43.726 C 10.167 43.978,9.716 44.328,9.459 44.275 C 9.251 44.233,8.167 45.210,8.167 45.440 C 8.167 45.570,8.060 45.615,7.900 45.554 C 7.567 45.426,7.311 45.807,7.431 46.250 C 7.481 46.435,7.461 46.509,7.386 46.417 C 7.138 46.113,6.806 46.152,6.716 46.495 C 6.667 46.684,6.489 46.833,6.314 46.833 C 6.111 46.833,6.000 46.951,6.000 47.167 C 6.000 47.389,5.889 47.500,5.667 47.500 C 5.444 47.500,5.333 47.611,5.333 47.833 C 5.333 48.054,5.222 48.167,5.003 48.167 C 4.790 48.167,4.636 48.314,4.568 48.583 C 4.482 48.928,4.364 49.000,3.881 49.000 C 3.426 49.000,3.319 49.056,3.395 49.255 C 3.466 49.438,3.354 49.538,2.997 49.609 C 2.620 49.684,2.500 49.800,2.500 50.089 C 2.500 50.384,2.427 50.450,2.173 50.383 C 1.912 50.315,1.859 50.368,1.913 50.649 C 1.972 50.953,1.901 51.000,1.385 51.000 C 0.174 51.000,-0.000 51.440,0.000 54.495 C 0.000 56.454,0.054 57.161,0.208 57.223 C 0.375 57.290,0.375 57.310,0.208 57.320 C 0.094 57.327,-0.000 57.416,-0.000 57.518 C -0.000 57.619,0.095 57.666,0.212 57.621 C 0.362 57.563,0.424 57.736,0.424 58.210 C 0.424 58.719,0.514 58.941,0.795 59.128 C 1.000 59.263,1.167 59.524,1.167 59.706 C 1.167 59.957,1.249 60.017,1.500 59.952 C 1.765 59.882,1.833 59.947,1.833 60.266 C 1.833 60.519,1.930 60.667,2.095 60.667 C 2.471 60.667,2.896 61.114,2.624 61.223 C 2.510 61.269,2.656 61.313,2.948 61.320 C 3.241 61.327,3.526 61.407,3.582 61.498 C 3.641 61.593,3.574 61.621,3.425 61.564 C 3.258 61.499,3.167 61.559,3.167 61.732 C 3.167 61.896,3.307 62.000,3.531 62.000 C 3.731 62.000,4.075 62.169,4.294 62.375 C 4.514 62.581,4.894 62.761,5.138 62.774 C 5.383 62.787,5.723 62.806,5.893 62.815 C 6.088 62.827,6.169 62.921,6.112 63.070 C 5.897 63.628,11.794 63.705,12.388 63.151 C 12.708 62.854,13.174 62.752,13.885 62.826 C 14.051 62.844,14.295 62.768,14.427 62.658 C 14.559 62.549,14.671 62.525,14.677 62.605 C 14.683 62.685,14.756 62.581,14.839 62.375 C 14.960 62.073,15.120 62.000,15.661 62.000 C 16.222 62.000,16.333 61.945,16.333 61.667 C 16.333 61.351,16.727 61.228,17.450 61.319 C 17.566 61.333,17.622 61.202,17.584 61.005 C 17.527 60.710,17.605 60.667,18.192 60.667 C 18.713 60.667,18.883 60.595,18.947 60.350 C 18.993 60.176,19.211 59.999,19.432 59.956 C 19.959 59.856,20.037 60.741,19.513 60.878 C 19.240 60.950,19.193 61.117,19.191 62.023 C 19.188 64.165,19.188 64.167,18.855 64.167 C 18.669 64.167,18.544 64.284,18.545 64.458 C 18.551 66.006,18.478 67.163,18.375 67.147 C 18.004 67.088,17.833 67.203,17.833 67.510 C 17.833 67.736,17.904 67.813,18.042 67.735 C 18.208 67.641,18.208 67.663,18.042 67.842 C 17.913 67.981,17.833 68.554,17.833 69.348 C 17.833 70.425,17.790 70.626,17.565 70.606 C 17.417 70.594,17.231 70.756,17.150 70.967 C 17.041 71.254,17.056 71.319,17.211 71.226 C 17.361 71.136,17.358 71.175,17.200 71.370 C 17.078 71.521,16.996 71.989,17.012 72.444 C 17.067 73.970,17.001 74.854,16.842 74.755 C 16.427 74.499,16.364 75.665,16.356 83.876 C 16.347 92.520,16.352 92.602,16.875 92.520 C 17.012 92.498,17.068 93.305,17.016 94.557 C 16.997 95.007,17.049 95.322,17.134 95.270 C 17.217 95.219,17.250 95.362,17.206 95.588 C 17.143 95.921,17.195 96.000,17.481 96.000 C 17.804 96.000,17.833 96.091,17.833 97.083 C 17.833 98.056,17.868 98.167,18.167 98.167 C 18.501 98.167,18.600 98.641,18.507 99.792 C 18.484 100.070,18.565 100.167,18.821 100.167 C 19.112 100.167,19.167 100.270,19.167 100.822 C 19.167 101.331,19.241 101.501,19.500 101.583 C 19.750 101.663,19.833 101.836,19.833 102.277 C 19.833 102.724,19.913 102.885,20.167 102.952 C 20.470 103.031,20.573 103.203,20.520 103.542 C 20.509 103.610,20.573 103.667,20.661 103.667 C 20.750 103.667,20.782 103.773,20.732 103.904 C 20.680 104.040,20.789 104.220,20.987 104.326 C 21.178 104.428,21.333 104.622,21.333 104.756 C 21.333 104.890,21.483 105.000,21.667 105.000 C 21.907 105.000,22.000 105.111,22.000 105.399 C 22.000 105.764,22.385 106.097,22.721 106.022 C 22.796 106.006,22.810 106.069,22.752 106.164 C 22.693 106.258,22.763 106.381,22.906 106.436 C 23.049 106.491,23.167 106.612,23.167 106.705 C 23.167 106.798,23.046 106.774,22.897 106.651 C 22.664 106.457,22.637 106.470,22.695 106.755 C 22.734 106.941,22.887 107.073,23.048 107.060 C 23.226 107.046,23.333 107.157,23.333 107.356 C 23.333 107.545,23.507 107.741,23.760 107.837 C 23.997 107.927,24.138 108.079,24.077 108.178 C 24.016 108.276,24.117 108.395,24.301 108.443 C 24.485 108.491,24.673 108.674,24.719 108.849 C 24.768 109.037,24.948 109.167,25.159 109.167 C 25.355 109.167,25.692 109.357,25.907 109.589 C 26.123 109.821,26.399 109.990,26.520 109.964 C 26.642 109.938,26.768 110.085,26.799 110.292 C 26.836 110.534,26.972 110.667,27.183 110.667 C 27.363 110.667,27.554 110.780,27.608 110.920 C 27.661 111.059,27.790 111.159,27.894 111.142 C 28.329 111.073,28.958 111.372,28.938 111.638 C 28.922 111.851,29.061 111.918,29.532 111.920 C 30.169 111.924,30.416 112.055,30.417 112.389 C 30.418 112.585,30.574 112.617,31.697 112.649 C 32.155 112.662,32.338 112.751,32.417 113.000 C 32.513 113.304,32.669 113.333,34.167 113.333 C 35.615 113.333,35.822 113.370,35.908 113.639 C 36.025 114.009,35.975 113.999,38.250 114.076 C 40.507 114.152,41.124 114.065,41.256 113.649 C 41.347 113.362,41.539 113.333,43.360 113.333 C 45.158 113.333,45.392 113.299,45.640 113.001 C 45.847 112.752,46.144 112.661,46.819 112.640 C 47.446 112.620,47.815 112.518,48.030 112.304 C 48.199 112.134,48.580 111.967,48.877 111.933 C 49.174 111.899,49.473 111.862,49.542 111.852 C 49.610 111.842,49.667 111.721,49.667 111.583 C 49.667 111.411,49.840 111.333,50.224 111.333 C 50.570 111.333,50.896 111.207,51.083 111.000 C 51.255 110.811,51.597 110.667,51.875 110.667 C 52.224 110.667,52.389 110.571,52.452 110.333 C 52.500 110.150,52.661 109.991,52.811 109.981 C 52.961 109.970,53.158 109.944,53.250 109.923 C 53.342 109.902,53.505 109.873,53.613 109.859 C 53.722 109.845,53.834 109.665,53.863 109.458 C 53.905 109.163,54.014 109.091,54.373 109.117 C 54.679 109.140,54.888 109.043,55.004 108.825 C 55.100 108.646,55.326 108.500,55.506 108.500 C 55.739 108.500,55.833 108.387,55.833 108.106 C 55.833 107.785,55.910 107.721,56.250 107.758 C 56.528 107.789,56.667 107.722,56.667 107.557 C 56.667 107.421,56.774 107.202,56.905 107.071 C 57.178 106.799,57.403 106.752,57.250 107.000 C 57.073 107.286,57.472 107.182,57.785 106.860 C 57.949 106.691,58.215 106.506,58.375 106.449 C 58.535 106.391,58.667 106.238,58.667 106.108 C 58.667 105.978,58.822 105.832,59.012 105.782 C 59.306 105.705,59.330 105.639,59.172 105.343 C 59.070 105.152,59.045 105.005,59.118 105.017 C 59.653 105.107,60.000 104.969,60.000 104.667 C 60.000 104.368,60.267 104.239,60.721 104.318 C 60.796 104.331,60.814 104.271,60.761 104.184 C 60.639 103.987,61.142 103.465,61.338 103.586 C 61.418 103.635,61.453 103.524,61.418 103.338 C 61.367 103.075,61.440 103.000,61.748 103.000 C 62.031 103.000,62.159 102.894,62.197 102.625 C 62.232 102.375,62.347 102.266,62.542 102.299 C 62.735 102.332,62.833 102.240,62.833 102.027 C 62.833 101.839,62.981 101.667,63.189 101.613 C 63.438 101.547,63.519 101.425,63.461 101.204 C 63.394 100.947,63.452 100.902,63.773 100.964 C 64.103 101.027,64.167 100.971,64.167 100.614 C 64.167 100.301,64.265 100.176,64.542 100.136 C 64.815 100.097,64.906 99.983,64.879 99.718 C 64.849 99.436,64.915 99.368,65.170 99.417 C 65.352 99.452,65.500 99.421,65.500 99.348 C 65.500 99.275,65.688 99.013,65.917 98.766 C 66.146 98.518,66.333 98.212,66.333 98.084 C 66.333 97.957,66.473 97.754,66.644 97.634 C 66.946 97.423,67.000 97.329,67.000 97.019 C 67.000 96.938,67.152 96.832,67.338 96.784 C 67.524 96.735,67.665 96.633,67.652 96.556 C 67.590 96.203,67.694 96.032,68.022 95.946 C 68.244 95.888,68.342 95.764,68.285 95.614 C 68.228 95.466,68.353 95.302,68.613 95.184 C 68.888 95.058,68.999 94.904,68.935 94.737 C 68.879 94.592,68.908 94.526,69.002 94.585 C 69.093 94.641,69.167 94.565,69.167 94.417 C 69.167 94.268,69.093 94.193,69.002 94.249 C 68.907 94.307,68.880 94.240,68.938 94.089 C 68.993 93.945,69.123 93.838,69.227 93.850 C 69.632 93.899,69.849 93.826,69.755 93.675 C 69.701 93.587,69.865 93.407,70.120 93.273 C 70.375 93.140,70.565 92.986,70.542 92.932 C 70.344 92.464,70.533 91.832,70.875 91.820 C 71.081 91.813,71.157 91.769,71.043 91.723 C 70.771 91.614,71.195 91.167,71.571 91.167 C 71.745 91.167,71.835 91.012,71.839 90.708 C 71.844 90.218,72.212 89.601,72.391 89.780 C 72.451 89.840,72.500 89.726,72.500 89.528 C 72.500 89.285,72.603 89.167,72.816 89.167 C 73.175 89.167,73.333 88.856,73.333 88.153 C 73.333 87.778,73.409 87.667,73.667 87.667 C 73.892 87.667,74.000 87.556,74.000 87.323 C 74.000 87.107,73.929 87.024,73.808 87.099 C 73.691 87.171,73.660 87.145,73.730 87.033 C 73.793 86.931,73.962 86.893,74.105 86.948 C 74.429 87.072,74.661 86.731,74.664 86.125 C 74.666 85.709,74.822 85.579,75.229 85.654 C 75.309 85.668,75.332 85.571,75.281 85.437 C 75.230 85.303,75.338 85.020,75.522 84.807 C 75.707 84.595,75.899 84.214,75.950 83.961 C 76.011 83.654,76.146 83.500,76.354 83.500 C 76.607 83.500,76.667 83.374,76.667 82.845 C 76.667 82.292,76.725 82.182,77.042 82.137 C 77.342 82.094,77.433 81.950,77.500 81.417 C 77.555 80.975,77.667 80.750,77.831 80.750 C 77.967 80.750,78.105 80.612,78.138 80.443 C 78.170 80.274,78.340 79.993,78.515 79.818 C 78.690 79.643,78.833 79.283,78.833 79.019 C 78.833 78.662,78.909 78.543,79.125 78.560 C 79.306 78.575,79.426 78.457,79.441 78.250 C 79.454 78.067,79.473 77.794,79.482 77.644 C 79.492 77.495,79.656 77.332,79.846 77.282 C 80.055 77.227,80.179 77.071,80.160 76.887 C 80.094 76.256,80.177 76.019,80.500 75.917 C 80.759 75.834,80.833 75.664,80.833 75.155 C 80.833 74.618,80.891 74.500,81.157 74.500 C 81.335 74.500,81.534 74.413,81.599 74.308 C 81.679 74.179,81.641 74.159,81.484 74.249 C 81.295 74.357,81.290 74.339,81.458 74.158 C 81.573 74.034,81.667 73.770,81.667 73.569 C 81.667 73.338,81.796 73.172,82.023 73.112 C 82.327 73.033,82.366 72.933,82.286 72.441 C 82.205 71.939,82.243 71.850,82.575 71.767 C 82.793 71.712,82.956 71.545,82.956 71.377 C 82.952 70.564,83.023 70.366,83.347 70.282 C 83.587 70.219,83.684 70.071,83.662 69.804 C 83.606 69.126,83.659 69.000,84.000 69.000 C 84.278 69.000,84.333 68.889,84.333 68.333 C 84.333 67.778,84.389 67.667,84.667 67.667 C 84.850 67.667,84.991 67.610,84.980 67.542 C 84.861 66.786,85.028 66.167,85.351 66.167 C 85.600 66.167,85.673 66.091,85.603 65.908 C 85.546 65.759,85.574 65.693,85.669 65.751 C 85.766 65.811,85.807 65.694,85.769 65.468 C 85.727 65.221,85.828 64.985,86.052 64.807 C 86.289 64.619,86.400 64.341,86.400 63.932 C 86.400 63.471,86.468 63.333,86.695 63.333 C 86.879 63.333,86.956 63.246,86.900 63.100 C 86.851 62.972,86.891 62.818,86.989 62.757 C 87.087 62.697,87.167 62.499,87.167 62.318 C 87.167 62.137,87.272 61.949,87.400 61.900 C 87.704 61.784,87.854 61.206,87.607 61.104 C 87.476 61.051,87.482 61.022,87.625 61.013 C 87.742 61.006,87.833 60.782,87.833 60.500 C 87.833 60.103,87.905 60.000,88.184 60.000 C 88.492 60.000,88.527 59.920,88.472 59.340 C 88.419 58.779,88.460 58.673,88.746 58.632 C 89.009 58.594,89.105 58.418,89.183 57.833 C 89.279 57.116,89.389 65.028,89.338 68.971 C 89.315 70.748,89.333 70.865,89.657 70.949 C 89.976 71.033,90.000 71.163,90.002 72.811 C 90.005 74.650,90.107 75.390,90.341 75.245 C 90.571 75.103,90.640 75.381,90.678 76.589 C 90.726 78.111,90.810 78.470,91.142 78.575 C 91.366 78.646,91.406 78.847,91.360 79.676 C 91.308 80.589,91.337 80.699,91.651 80.781 C 91.997 80.871,92.065 81.066,92.007 81.792 C 91.985 82.054,92.068 82.167,92.280 82.169 C 92.517 82.171,92.533 82.203,92.354 82.317 C 92.068 82.498,92.282 82.889,92.600 82.767 C 92.779 82.698,92.833 82.854,92.833 83.432 C 92.833 83.847,92.900 84.145,92.981 84.095 C 93.217 83.949,93.520 84.433,93.536 84.980 C 93.549 85.452,93.870 85.766,94.158 85.589 C 94.228 85.546,94.249 85.698,94.205 85.929 C 94.161 86.159,94.191 86.335,94.271 86.321 C 94.781 86.227,94.921 86.359,94.895 86.911 C 94.875 87.346,94.946 87.513,95.184 87.589 C 95.358 87.644,95.500 87.830,95.500 88.001 C 95.500 88.173,95.587 88.367,95.692 88.433 C 95.822 88.513,95.840 88.475,95.747 88.317 C 95.666 88.180,95.747 88.203,95.943 88.375 C 96.127 88.536,96.343 88.611,96.425 88.542 C 96.506 88.473,96.482 88.536,96.371 88.682 C 96.138 88.988,96.257 89.167,96.694 89.167 C 96.889 89.167,97.000 89.288,97.000 89.500 C 97.000 89.722,97.111 89.833,97.333 89.833 C 97.556 89.833,97.667 89.944,97.667 90.167 C 97.667 90.409,97.778 90.500,98.074 90.500 C 98.386 90.500,98.466 90.575,98.419 90.821 C 98.374 91.057,98.437 91.128,98.658 91.085 C 98.852 91.048,99.027 91.177,99.151 91.449 C 99.300 91.776,99.435 91.853,99.755 91.792 C 99.981 91.748,100.298 91.821,100.458 91.952 C 100.619 92.084,100.656 92.144,100.542 92.086 C 100.427 92.028,100.333 92.028,100.333 92.085 C 100.333 92.248,100.799 92.675,100.949 92.650 C 101.408 92.572,101.833 92.700,101.833 92.917 C 101.833 93.054,101.927 93.178,102.042 93.192 C 102.156 93.206,102.325 93.235,102.417 93.256 C 102.508 93.277,102.856 93.304,103.189 93.314 C 103.642 93.329,103.816 93.416,103.881 93.663 C 103.957 93.956,104.095 93.988,105.134 93.954 C 105.777 93.934,106.273 93.963,106.238 94.019 C 106.203 94.076,106.304 94.237,106.462 94.377 C 106.965 94.821,116.836 94.775,116.953 94.327 C 117.043 93.983,117.282 93.943,118.887 93.998 C 119.556 94.021,119.705 93.972,119.776 93.703 C 119.845 93.438,120.060 93.360,120.954 93.277 C 121.569 93.219,122.171 93.063,122.329 92.921 C 122.483 92.781,122.791 92.666,123.013 92.664 C 123.500 92.661,123.739 92.513,123.882 92.125 C 123.960 91.913,124.174 91.833,124.669 91.833 C 125.115 91.833,125.339 91.762,125.321 91.625 C 125.259 91.149,125.360 91.077,126.000 91.138 C 126.612 91.197,126.667 91.169,126.667 90.796 C 126.667 90.447,126.731 90.401,127.134 90.460 C 127.450 90.506,127.680 90.429,127.843 90.223 C 128.069 89.936,128.063 89.932,127.750 90.167 C 127.441 90.399,127.433 90.396,127.645 90.125 C 127.771 89.965,128.059 89.833,128.286 89.833 C 128.558 89.833,128.728 89.720,128.785 89.500 C 128.864 89.200,129.032 89.093,129.243 89.208 C 129.386 89.286,129.804 88.588,129.708 88.432 C 129.655 88.346,129.736 88.324,129.889 88.383 C 130.187 88.498,130.866 88.309,130.846 88.117 C 130.807 87.751,130.864 87.667,131.149 87.667 C 131.322 87.667,131.509 87.550,131.564 87.408 C 131.628 87.241,131.596 87.191,131.472 87.267 C 131.355 87.340,131.327 87.311,131.401 87.192 C 131.466 87.087,131.672 87.000,131.859 87.000 C 132.058 87.000,132.234 86.862,132.285 86.667 C 132.333 86.482,132.512 86.333,132.686 86.333 C 132.859 86.333,132.991 86.277,132.980 86.208 C 132.926 85.865,133.031 85.679,133.333 85.583 C 133.517 85.525,133.667 85.375,133.667 85.250 C 133.667 85.125,133.817 84.975,134.000 84.917 C 134.183 84.858,134.333 84.683,134.333 84.526 C 134.333 84.369,134.483 84.112,134.667 83.955 C 134.850 83.798,135.000 83.482,135.000 83.252 C 135.000 83.022,135.075 82.824,135.167 82.813 C 135.258 82.801,135.427 82.782,135.542 82.771 C 135.656 82.759,135.750 82.547,135.750 82.300 C 135.750 82.052,135.859 81.753,135.992 81.633 C 136.201 81.446,136.204 81.457,136.013 81.708 C 135.873 81.894,135.858 82.000,135.974 82.000 C 136.210 82.000,136.500 81.450,136.500 81.001 C 136.500 80.806,136.570 80.690,136.655 80.743 C 136.838 80.856,137.069 80.537,137.102 80.125 C 137.114 79.965,137.134 79.730,137.146 79.603 C 137.157 79.476,137.329 79.330,137.527 79.278 C 137.848 79.194,137.862 79.151,137.652 78.893 C 137.472 78.671,137.469 78.634,137.639 78.737 C 137.803 78.835,137.853 78.766,137.829 78.477 C 137.757 77.611,137.832 77.333,138.139 77.333 C 138.398 77.333,138.451 77.179,138.482 76.324 C 138.508 75.602,138.605 75.228,138.825 75.008 C 139.174 74.659,139.338 67.833,138.997 67.833 C 138.907 67.833,138.833 67.913,138.833 68.010 C 138.833 68.107,138.758 68.140,138.667 68.083 C 138.387 67.910,138.481 67.667,138.828 67.667 C 139.051 67.667,139.126 67.587,139.060 67.417 C 139.008 67.279,138.864 67.167,138.742 67.167 C 138.599 67.167,138.501 66.912,138.468 66.458 C 138.427 65.889,138.349 65.740,138.072 65.701 C 137.788 65.660,137.738 65.556,137.792 65.117 C 137.836 64.754,137.807 64.654,137.702 64.806 C 137.575 64.987,137.529 64.981,137.449 64.775 C 137.396 64.635,137.442 64.485,137.551 64.441 C 137.686 64.386,137.675 64.355,137.519 64.346 C 137.392 64.339,137.114 64.146,136.902 63.917 C 136.601 63.591,136.352 63.500,135.768 63.500 C 135.356 63.500,134.973 63.425,134.917 63.333 C 134.788 63.124,134.167 63.113,134.167 63.319 C 134.167 63.403,134.257 63.502,134.367 63.539 C 134.489 63.580,134.454 63.649,134.275 63.718 C 134.100 63.784,134.024 63.763,134.085 63.665 C 134.258 63.384,133.967 63.484,133.714 63.792 C 133.583 63.952,133.523 63.990,133.581 63.875 C 133.762 63.518,133.495 63.646,132.974 64.167 C 132.699 64.442,132.532 64.667,132.602 64.667 C 132.673 64.667,132.586 64.773,132.409 64.902 C 132.232 65.031,132.035 65.105,131.972 65.066 C 131.909 65.027,131.812 65.138,131.756 65.313 C 131.701 65.488,131.508 65.669,131.328 65.716 C 131.148 65.764,131.000 65.922,131.000 66.068 C 131.000 66.218,130.862 66.333,130.681 66.333 C 130.472 66.333,130.378 66.433,130.407 66.625 C 130.437 66.822,130.314 66.944,130.025 67.000 C 129.750 67.054,129.557 67.232,129.482 67.500 C 129.419 67.729,129.359 67.851,129.350 67.771 C 129.341 67.691,129.217 67.722,129.076 67.840 C 128.934 67.957,128.854 68.148,128.899 68.264 C 128.955 68.410,128.850 68.451,128.553 68.397 C 128.223 68.337,128.148 68.377,128.222 68.571 C 128.328 68.847,128.099 69.045,127.583 69.125 C 127.400 69.154,127.077 69.364,126.865 69.592 C 126.653 69.820,126.398 69.956,126.297 69.895 C 126.197 69.833,126.159 69.853,126.213 69.941 C 126.357 70.173,126.098 70.515,125.733 70.572 C 125.559 70.600,125.427 70.745,125.440 70.895 C 125.455 71.075,125.332 71.167,125.077 71.167 C 124.865 71.167,124.554 71.338,124.387 71.546 C 124.220 71.755,123.965 71.902,123.821 71.873 C 123.671 71.843,123.478 71.999,123.368 72.240 C 123.249 72.503,123.086 72.625,122.935 72.567 C 122.773 72.505,122.675 72.603,122.638 72.862 C 122.592 73.188,122.499 73.242,122.057 73.200 C 121.672 73.163,121.464 73.245,121.282 73.504 C 121.107 73.755,120.821 73.874,120.309 73.910 C 119.910 73.938,119.490 73.970,119.375 73.981 C 119.260 73.991,119.167 74.150,119.167 74.333 C 119.167 74.884,117.183 74.820,116.568 74.250 C 116.111 73.827,115.545 73.669,115.766 74.026 C 115.840 74.146,115.812 74.173,115.690 74.098 C 115.582 74.031,115.538 73.907,115.591 73.821 C 115.741 73.578,115.191 73.122,114.889 73.238 C 114.667 73.323,114.656 73.297,114.824 73.094 C 115.090 72.774,114.884 72.448,114.481 72.553 C 114.208 72.625,114.167 72.539,114.167 71.894 C 114.167 71.280,114.116 71.160,113.875 71.201 C 113.619 71.244,113.573 71.058,113.500 69.694 C 113.434 68.465,113.355 68.094,113.123 67.924 C 112.856 67.730,112.827 67.322,112.811 63.589 C 112.793 59.211,112.760 58.833,112.397 58.833 C 112.121 58.833,112.145 59.930,112.163 48.020 C 112.177 39.069,112.159 38.433,111.881 38.106 C 111.658 37.844,111.651 37.808,111.852 37.963 C 112.097 38.151,112.123 37.964,112.141 35.918 C 112.153 34.541,112.097 33.667,111.997 33.667 C 111.907 33.667,111.852 33.573,111.875 33.458 C 111.898 33.344,111.823 33.269,111.708 33.292 C 111.501 33.333,111.406 31.604,111.493 29.359 C 111.520 28.648,111.455 28.391,111.172 28.089 C 110.886 27.785,110.815 27.500,110.813 26.647 C 110.810 25.716,110.757 25.542,110.393 25.248 C 110.067 24.986,109.973 24.748,109.956 24.147 C 109.939 23.568,109.871 23.386,109.675 23.399 C 109.481 23.412,109.404 23.215,109.365 22.613 C 109.324 21.959,109.272 21.843,109.089 21.996 C 108.921 22.135,108.831 22.132,108.739 21.982 C 108.661 21.855,108.686 21.825,108.808 21.901 C 108.913 21.966,109.000 21.938,109.000 21.838 C 109.000 21.738,108.898 21.617,108.773 21.569 C 108.631 21.515,108.568 21.295,108.604 20.983 C 108.636 20.708,108.598 20.523,108.519 20.571 C 108.441 20.620,108.214 20.519,108.015 20.346 C 107.764 20.129,107.718 20.011,107.866 19.961 C 108.007 19.914,107.926 19.749,107.623 19.468 C 107.372 19.235,107.167 18.914,107.167 18.753 C 107.167 18.543,107.073 18.486,106.833 18.548 C 106.650 18.596,106.491 18.567,106.479 18.484 C 106.468 18.401,106.449 18.258,106.438 18.167 C 106.426 18.075,106.342 17.994,106.250 17.986 C 106.158 17.978,105.991 17.895,105.877 17.801 C 105.764 17.706,105.557 17.673,105.419 17.726 C 105.236 17.796,105.167 17.710,105.167 17.411 C 105.167 16.956,105.015 16.893,104.676 17.208 C 104.544 17.330,104.495 17.338,104.557 17.227 C 104.646 17.069,104.332 16.879,103.806 16.772 C 103.744 16.760,103.632 16.682,103.556 16.598 C 103.475 16.510,103.504 16.497,103.625 16.566 C 103.740 16.632,103.833 16.602,103.833 16.498 C 103.833 16.394,103.665 16.323,103.458 16.340 C 102.422 16.424,101.667 16.323,101.667 16.101 C 101.667 15.583,97.512 15.529,97.131 16.042 C 96.984 16.239,96.654 16.340,96.085 16.361 C 95.228 16.391,94.721 16.683,94.932 17.024 C 95.008 17.147,94.979 17.173,94.852 17.095 C 94.589 16.932,93.789 17.461,93.937 17.700 C 94.005 17.809,93.976 17.838,93.867 17.771 C 93.536 17.566,92.833 17.848,92.833 18.185 C 92.833 18.389,92.716 18.500,92.500 18.500 C 92.289 18.500,92.167 18.611,92.167 18.803 C 92.167 18.970,91.979 19.270,91.750 19.469 C 91.521 19.668,91.333 20.011,91.333 20.230 C 91.333 20.508,91.245 20.623,91.042 20.606 C 90.869 20.593,90.749 20.700,90.748 20.869 C 90.747 21.026,90.609 21.255,90.442 21.377 C 90.275 21.500,90.084 21.858,90.017 22.175 C 89.930 22.588,89.817 22.736,89.615 22.701 C 89.388 22.662,89.333 22.786,89.333 23.342 C 89.333 23.891,89.266 24.049,89.000 24.118 C 88.750 24.184,88.667 24.346,88.667 24.769 C 88.667 25.112,88.584 25.333,88.457 25.333 C 88.341 25.333,88.148 25.491,88.028 25.684 C 87.846 25.975,87.847 26.012,88.029 25.902 C 88.209 25.794,88.211 25.817,88.039 26.030 C 87.923 26.174,87.879 26.425,87.942 26.590 C 88.010 26.766,87.991 26.847,87.895 26.788 C 87.596 26.603,87.257 26.980,87.229 27.528 C 87.214 27.827,87.119 28.099,87.017 28.133 C 86.915 28.167,86.873 28.263,86.924 28.346 C 86.975 28.428,86.901 28.452,86.759 28.397 C 86.554 28.319,86.500 28.424,86.500 28.899 C 86.500 29.302,86.423 29.500,86.268 29.500 C 86.001 29.500,85.833 29.854,85.833 30.419 C 85.833 30.668,85.708 30.850,85.492 30.919 C 85.304 30.979,85.163 31.153,85.178 31.305 C 85.251 32.054,85.158 32.333,84.833 32.333 C 84.556 32.333,84.500 32.444,84.500 33.000 C 84.500 33.567,84.447 33.667,84.149 33.667 C 83.900 33.667,83.827 33.742,83.897 33.925 C 83.961 34.092,83.929 34.142,83.807 34.067 C 83.677 33.987,83.645 34.092,83.705 34.405 C 83.774 34.767,83.712 34.896,83.396 35.040 C 83.070 35.188,83.000 35.345,83.000 35.925 C 83.000 36.494,82.944 36.625,82.708 36.606 C 82.486 36.589,82.404 36.733,82.365 37.208 C 82.324 37.698,82.243 37.833,81.990 37.833 C 81.716 37.833,81.675 37.934,81.719 38.492 C 81.764 39.052,81.720 39.159,81.427 39.201 C 81.151 39.240,81.073 39.390,81.032 39.958 C 80.991 40.521,80.917 40.667,80.669 40.667 C 80.437 40.667,80.359 40.785,80.366 41.125 C 80.384 42.024,80.331 42.333,80.157 42.333 C 80.060 42.333,80.031 42.251,80.093 42.151 C 80.163 42.037,80.088 41.990,79.895 42.027 C 79.671 42.070,79.569 42.257,79.533 42.693 C 79.496 43.128,79.390 43.323,79.158 43.384 C 78.903 43.451,78.833 43.615,78.833 44.151 C 78.833 44.770,78.733 44.908,78.318 44.862 C 78.264 44.856,78.210 45.120,78.198 45.449 C 78.174 46.087,78.088 46.250,77.778 46.250 C 77.671 46.250,77.559 46.459,77.530 46.714 C 77.501 46.969,77.332 47.269,77.155 47.379 C 76.969 47.496,76.833 47.766,76.833 48.022 C 76.833 48.265,76.730 48.504,76.605 48.552 C 76.479 48.600,76.324 48.848,76.260 49.103 C 76.196 49.358,75.961 49.735,75.738 49.942 C 75.480 50.181,75.333 50.501,75.333 50.825 C 75.333 51.105,75.277 51.324,75.208 51.314 C 74.879 51.262,74.775 51.355,75.000 51.500 C 75.214 51.638,75.208 51.662,74.958 51.664 C 74.747 51.666,74.667 51.802,74.667 52.157 C 74.667 52.426,74.580 52.701,74.474 52.766 C 74.348 52.844,74.323 52.805,74.403 52.651 C 74.470 52.522,74.407 52.562,74.262 52.740 C 74.118 52.918,73.991 53.237,73.979 53.449 C 73.946 54.069,73.926 54.141,73.736 54.331 C 73.606 54.460,73.556 54.441,73.556 54.263 C 73.556 54.126,73.630 54.060,73.720 54.116 C 73.815 54.175,73.832 54.132,73.759 54.015 C 73.542 53.663,73.395 53.929,73.354 54.750 C 73.341 55.013,73.235 55.167,73.066 55.167 C 72.892 55.167,72.833 55.258,72.897 55.425 C 72.954 55.574,72.926 55.641,72.831 55.582 C 72.735 55.522,72.667 55.725,72.667 56.073 C 72.667 56.400,72.610 56.658,72.542 56.647 C 72.113 56.579,72.000 56.720,72.000 57.322 C 72.000 57.865,71.939 57.986,71.641 58.030 C 71.414 58.064,71.260 58.226,71.224 58.468 C 71.183 58.739,71.228 58.818,71.374 58.736 C 71.542 58.641,71.542 58.663,71.375 58.842 C 71.260 58.966,71.161 59.220,71.154 59.408 C 71.146 59.596,71.103 59.656,71.056 59.542 C 70.909 59.177,70.500 59.312,70.500 59.724 C 70.500 59.939,70.348 60.253,70.161 60.421 C 69.975 60.590,69.834 60.845,69.847 60.989 C 69.896 61.508,69.829 61.654,69.585 61.561 C 69.240 61.428,69.078 61.941,69.356 62.284 C 69.513 62.477,69.519 62.525,69.375 62.439 C 69.244 62.360,69.167 62.410,69.167 62.573 C 69.167 62.718,69.026 62.833,68.850 62.833 C 68.600 62.833,68.533 62.954,68.533 63.406 C 68.533 64.107,68.399 64.348,68.078 64.225 C 67.903 64.158,67.833 64.250,67.833 64.546 C 67.833 64.811,67.721 64.991,67.523 65.042 C 67.325 65.094,67.172 65.337,67.102 65.710 C 67.028 66.101,66.880 66.326,66.658 66.384 C 66.474 66.432,66.335 66.534,66.348 66.611 C 66.456 67.225,66.306 67.794,66.042 67.773 C 65.881 67.760,65.749 67.864,65.747 68.003 C 65.745 68.142,65.569 68.431,65.355 68.645 C 65.086 68.914,64.987 69.172,65.034 69.487 C 65.092 69.884,65.052 69.932,64.717 69.868 C 64.343 69.796,64.182 70.054,64.484 70.240 C 64.724 70.389,64.283 71.164,63.958 71.165 C 63.762 71.166,63.667 71.297,63.667 71.565 C 63.667 71.842,63.578 71.956,63.375 71.940 C 63.193 71.925,63.092 72.025,63.106 72.207 C 63.119 72.366,63.062 72.455,62.981 72.405 C 62.900 72.355,62.833 72.506,62.833 72.740 C 62.833 72.999,62.740 73.167,62.595 73.167 C 62.345 73.167,62.085 73.733,62.228 73.965 C 62.274 74.039,62.234 74.208,62.140 74.341 C 62.002 74.536,61.988 74.524,62.067 74.280 C 62.140 74.054,62.091 73.990,61.876 74.031 C 61.717 74.062,61.560 74.226,61.528 74.397 C 61.494 74.573,61.540 74.662,61.635 74.603 C 61.731 74.543,61.720 74.676,61.609 74.915 C 61.503 75.144,61.285 75.331,61.125 75.332 C 60.951 75.333,60.833 75.460,60.833 75.647 C 60.833 75.822,60.684 76.000,60.495 76.050 C 60.309 76.098,60.168 76.201,60.182 76.277 C 60.288 76.882,60.139 77.333,59.833 77.333 C 59.615 77.333,59.500 77.444,59.500 77.655 C 59.500 77.833,59.363 78.021,59.196 78.074 C 58.911 78.164,58.622 78.622,58.161 79.708 C 58.047 79.980,57.838 80.167,57.650 80.167 C 57.448 80.167,57.333 80.283,57.333 80.489 C 57.333 80.666,57.183 80.858,57.000 80.917 C 56.752 80.995,56.667 81.169,56.667 81.595 C 56.667 82.056,56.602 82.167,56.333 82.167 C 56.089 82.167,56.000 82.278,56.000 82.583 C 56.000 82.884,55.910 83.000,55.678 83.000 C 55.471 83.000,55.337 83.134,55.303 83.375 C 55.268 83.625,55.153 83.734,54.958 83.701 C 54.659 83.651,54.587 83.872,54.646 84.667 C 54.670 84.997,54.641 85.032,54.507 84.833 C 54.394 84.665,54.338 84.652,54.336 84.792 C 54.334 84.906,54.208 85.000,54.056 85.000 C 53.903 85.000,53.825 85.047,53.883 85.105 C 54.065 85.287,53.673 85.825,53.427 85.731 C 53.275 85.672,53.174 85.776,53.138 86.029 C 53.108 86.242,52.971 86.417,52.833 86.417 C 52.696 86.417,52.581 86.530,52.579 86.667 C 52.572 87.070,52.342 87.326,52.078 87.225 C 51.911 87.161,51.833 87.242,51.833 87.482 C 51.833 87.725,51.728 87.833,51.493 87.833 C 51.265 87.833,51.168 87.926,51.201 88.114 C 51.233 88.296,51.104 88.430,50.833 88.496 C 50.604 88.552,50.407 88.689,50.396 88.799 C 50.384 88.910,50.366 89.080,50.354 89.178 C 50.342 89.278,50.188 89.310,50.000 89.250 C 49.740 89.167,49.667 89.220,49.667 89.489 C 49.667 89.745,49.560 89.833,49.250 89.833 C 49.021 89.833,48.832 89.927,48.831 90.042 C 48.829 90.192,48.787 90.185,48.682 90.019 C 48.430 89.622,47.614 89.924,47.834 90.334 C 47.972 90.592,47.959 90.640,47.770 90.568 C 47.640 90.518,47.493 90.326,47.445 90.142 C 47.385 89.913,47.234 89.817,46.970 89.838 C 46.280 89.895,45.978 89.837,46.083 89.667 C 46.140 89.575,46.069 89.500,45.927 89.500 C 45.784 89.500,45.667 89.424,45.667 89.332 C 45.667 89.239,45.443 88.930,45.170 88.644 C 44.897 88.358,44.714 88.059,44.763 87.979 C 44.813 87.899,44.699 87.833,44.510 87.833 C 44.217 87.833,44.164 87.723,44.146 87.083 C 44.134 86.671,44.106 86.258,44.083 86.167 C 44.060 86.075,44.032 85.925,44.021 85.833 C 44.009 85.742,43.850 85.667,43.667 85.667 C 43.307 85.667,43.277 85.293,43.332 81.458 C 43.348 80.357,43.300 79.999,43.135 79.997 C 42.956 79.995,42.956 79.970,43.136 79.856 C 43.292 79.757,43.349 79.312,43.333 78.317 C 43.270 74.341,43.337 72.316,43.528 72.434 C 43.662 72.517,43.687 72.461,43.608 72.254 C 43.506 71.988,43.525 71.980,43.778 72.185 C 43.936 72.313,44.011 72.329,43.946 72.220 C 43.881 72.112,43.889 71.986,43.963 71.940 C 44.037 71.894,44.114 71.050,44.135 70.063 C 44.161 68.832,44.244 68.189,44.400 68.010 C 44.776 67.580,44.881 67.009,44.639 66.710 C 44.503 66.542,44.493 66.482,44.614 66.554 C 44.759 66.641,44.808 66.360,44.799 65.494 C 44.787 64.469,44.833 64.282,45.143 64.065 C 45.528 63.795,45.670 62.878,45.292 63.105 C 45.130 63.203,45.127 63.177,45.277 62.990 C 45.508 62.705,45.500 62.757,45.500 61.519 C 45.500 60.686,45.544 60.541,45.792 60.560 C 46.045 60.580,46.090 60.397,46.132 59.180 C 46.169 58.124,46.248 57.727,46.450 57.580 C 46.615 57.459,46.666 57.300,46.583 57.166 C 46.491 57.018,46.514 56.989,46.652 57.074 C 46.777 57.151,46.844 57.113,46.825 56.975 C 46.676 55.894,46.856 54.515,47.157 54.420 C 47.419 54.337,47.480 54.166,47.475 53.533 C 47.461 51.947,47.498 51.667,47.723 51.667 C 48.079 51.667,48.333 50.899,48.333 49.825 C 48.333 49.055,48.389 48.833,48.583 48.833 C 48.721 48.833,48.839 48.777,48.847 48.708 C 49.021 47.062,49.058 45.833,48.933 45.833 C 48.848 45.833,48.826 45.785,48.885 45.726 C 48.944 45.667,49.100 45.708,49.231 45.818 C 49.565 46.095,49.644 45.886,49.638 44.743 C 49.631 43.375,49.629 43.382,49.970 43.293 C 50.227 43.226,50.279 43.014,50.307 41.908 C 50.342 40.583,50.386 40.417,50.708 40.417 C 50.808 40.417,50.924 40.311,50.967 40.182 C 51.021 40.020,50.960 39.980,50.773 40.052 C 50.623 40.109,50.500 40.084,50.500 39.995 C 50.500 39.906,50.612 39.833,50.750 39.833 C 50.933 39.833,51.000 39.643,51.000 39.123 C 51.000 38.569,51.082 38.363,51.372 38.181 C 51.735 37.954,51.736 37.945,51.414 37.819 C 51.132 37.709,51.126 37.688,51.375 37.678 C 51.622 37.668,51.667 37.500,51.667 36.589 C 51.667 35.703,51.711 35.527,51.914 35.606 C 52.255 35.736,52.500 35.029,52.500 33.916 C 52.500 33.423,52.576 32.973,52.669 32.915 C 52.763 32.857,52.794 32.739,52.740 32.651 C 52.686 32.563,52.741 32.512,52.863 32.538 C 53.080 32.583,53.115 32.370,53.152 30.811 C 53.163 30.357,53.248 30.184,53.493 30.120 C 53.779 30.045,53.825 29.862,53.868 28.642 C 53.907 27.537,53.968 27.250,54.167 27.250 C 54.363 27.250,54.427 26.980,54.463 26.000 C 54.515 24.580,54.578 24.312,54.848 24.373 C 55.123 24.436,55.209 23.669,54.961 23.363 C 54.795 23.159,54.795 23.130,54.958 23.228 C 55.118 23.324,55.167 23.027,55.167 21.946 C 55.167 20.688,55.201 20.530,55.493 20.453 C 56.006 20.319,55.997 8.634,55.484 8.275 C 55.229 8.096,55.148 7.824,55.120 7.064 C 55.092 6.319,55.023 6.083,54.833 6.083 C 54.653 6.083,54.569 5.861,54.532 5.287 C 54.496 4.716,54.390 4.434,54.157 4.289 C 53.979 4.178,53.833 3.910,53.833 3.694 C 53.833 3.442,53.714 3.271,53.500 3.215 C 53.189 3.134,53.089 2.957,53.154 2.604 C 53.169 2.524,53.003 2.492,52.785 2.534 C 52.447 2.599,52.401 2.554,52.465 2.221 C 52.527 1.895,52.469 1.833,52.103 1.833 C 51.778 1.833,51.667 1.748,51.667 1.500 C 51.667 1.278,51.556 1.167,51.333 1.167 C 51.034 1.167,50.967 1.074,51.015 0.723 C 51.043 0.518,50.581 0.361,50.058 0.397 C 49.688 0.423,49.560 0.370,49.619 0.217 C 49.665 0.097,49.619 -0.000,49.518 -0.000 C 49.416 -0.000,49.331 0.131,49.328 0.292 C 49.323 0.569,49.312 0.569,49.101 0.292 C 48.844 -0.047,41.500 -0.168,41.500 0.167 M110.403 25.434 C 110.548 25.490,110.667 25.612,110.667 25.705 C 110.667 25.811,110.584 25.805,110.443 25.689 C 110.320 25.586,110.170 25.552,110.110 25.613 C 110.049 25.673,110.000 25.635,110.000 25.528 C 110.000 25.305,110.041 25.295,110.403 25.434 M86.017 64.549 C 85.803 64.763,85.586 64.598,85.745 64.342 C 85.806 64.242,85.933 64.208,86.026 64.266 C 86.140 64.336,86.137 64.430,86.017 64.549 M138.812 74.776 C 138.711 74.897,138.561 74.954,138.478 74.903 C 138.269 74.774,138.433 74.556,138.740 74.556 C 138.932 74.556,138.950 74.610,138.812 74.776 " stroke="none" fill="#ec5454" fill-rule="evenodd"></path><path id="path1" d="M34.573 6.183 C 34.429 6.416,34.793 6.500,34.978 6.276 C 35.117 6.110,35.099 6.056,34.907 6.056 C 34.767 6.056,34.617 6.113,34.573 6.183 M306.667 58.667 C 306.667 85.444,306.669 85.669,307.000 86.000 C 307.315 86.315,307.556 86.333,311.337 86.333 L 315.342 86.333 315.500 85.917 C 315.587 85.688,315.769 85.500,315.905 85.500 C 316.055 85.500,316.194 85.271,316.261 84.917 C 316.325 84.575,316.469 84.333,316.607 84.333 C 316.737 84.333,316.886 84.223,316.938 84.088 C 317.021 83.871,317.062 83.871,317.278 84.088 C 317.413 84.223,317.743 84.333,318.012 84.333 C 318.389 84.333,318.500 84.409,318.500 84.667 C 318.500 84.943,318.611 85.000,319.147 85.000 C 319.654 85.000,319.813 85.072,319.882 85.333 C 319.950 85.596,320.109 85.667,320.632 85.667 C 321.154 85.667,321.313 85.737,321.382 86.000 C 321.467 86.326,321.609 86.333,328.234 86.333 C 334.889 86.333,335.000 86.328,335.000 86.000 C 335.000 85.726,335.112 85.666,335.625 85.664 C 336.474 85.661,337.000 85.504,337.000 85.252 C 337.000 85.137,337.292 84.996,337.648 84.939 C 338.005 84.882,338.340 84.722,338.393 84.584 C 338.446 84.446,338.642 84.333,338.828 84.333 C 339.078 84.333,339.167 84.224,339.167 83.917 C 339.167 83.587,339.251 83.500,339.570 83.500 C 340.145 83.500,340.500 83.334,340.500 83.066 C 340.500 82.938,340.645 82.833,340.822 82.833 C 340.999 82.833,341.189 82.691,341.244 82.518 C 341.299 82.345,341.492 82.164,341.672 82.117 C 341.866 82.066,342.000 81.889,342.000 81.682 C 342.000 81.490,342.104 81.333,342.232 81.333 C 342.487 81.333,342.667 80.983,342.667 80.486 C 342.667 80.278,342.783 80.167,343.000 80.167 C 343.227 80.167,343.333 80.056,343.333 79.818 C 343.333 79.609,343.467 79.434,343.668 79.381 C 343.904 79.320,344.033 79.103,344.106 78.647 C 344.163 78.291,344.304 78.000,344.420 78.000 C 344.669 78.000,344.833 77.631,344.833 77.070 C 344.833 76.848,344.983 76.517,345.167 76.333 C 345.419 76.081,345.500 75.778,345.500 75.085 C 345.500 74.350,345.566 74.128,345.833 73.961 C 346.137 73.772,346.167 73.573,346.167 71.729 C 346.167 69.846,346.190 69.700,346.500 69.618 C 347.084 69.466,346.985 64.167,346.399 64.167 C 346.213 64.167,346.167 63.767,346.167 62.178 C 346.167 60.336,346.142 60.181,345.833 60.083 C 345.549 59.993,345.500 59.831,345.500 58.989 C 345.500 58.111,345.463 58.000,345.167 58.000 C 344.891 58.000,344.833 57.889,344.833 57.356 C 344.833 56.978,344.704 56.547,344.520 56.313 C 344.348 56.094,344.178 55.766,344.143 55.583 C 344.107 55.391,343.922 55.227,343.707 55.197 C 343.392 55.152,343.333 55.040,343.333 54.488 C 343.333 53.944,343.277 53.833,343.000 53.833 C 342.778 53.833,342.667 53.722,342.667 53.500 C 342.667 53.278,342.556 53.167,342.333 53.167 C 342.089 53.167,342.000 53.056,342.000 52.750 C 342.000 52.444,341.911 52.333,341.667 52.333 C 341.483 52.333,341.333 52.224,341.333 52.091 C 341.333 51.787,340.561 51.000,340.262 51.000 C 340.139 51.000,340.000 50.850,339.952 50.667 C 339.900 50.467,339.724 50.333,339.516 50.333 C 339.278 50.333,339.167 50.227,339.167 50.000 C 339.167 49.793,339.056 49.667,338.873 49.667 C 338.712 49.667,338.487 49.517,338.372 49.333 C 338.246 49.131,337.983 49.000,337.705 49.000 C 337.389 49.000,337.195 48.883,337.081 48.625 C 336.960 48.349,336.751 48.236,336.292 48.198 C 335.910 48.167,335.667 48.061,335.667 47.926 C 335.667 47.666,335.153 47.505,334.311 47.502 C 333.847 47.501,333.685 47.422,333.618 47.167 C 333.540 46.868,333.391 46.833,332.182 46.833 C 331.140 46.833,330.833 46.780,330.833 46.601 C 330.833 46.207,330.428 46.167,326.417 46.167 C 322.406 46.167,322.000 46.207,322.000 46.601 C 322.000 46.776,321.732 46.833,320.917 46.833 L 319.833 46.833 319.833 39.250 L 319.833 31.667 313.250 31.667 L 306.667 31.667 306.667 58.667 M166.333 51.599 C 166.333 69.391,166.336 69.532,166.667 69.618 C 166.965 69.696,167.000 69.847,167.002 71.061 C 167.005 72.735,167.111 73.167,167.519 73.167 C 167.793 73.167,167.833 73.299,167.833 74.182 C 167.833 75.058,167.879 75.210,168.167 75.285 C 168.428 75.353,168.500 75.512,168.500 76.019 C 168.500 76.556,168.557 76.667,168.833 76.667 C 169.111 76.667,169.167 76.778,169.167 77.333 C 169.167 77.889,169.222 78.000,169.500 78.000 C 169.770 78.000,169.833 78.111,169.833 78.589 C 169.833 78.971,169.925 79.212,170.096 79.278 C 170.241 79.333,170.426 79.556,170.509 79.773 C 170.591 79.989,170.773 80.167,170.913 80.167 C 171.056 80.167,171.167 80.312,171.167 80.500 C 171.167 80.744,171.278 80.833,171.583 80.833 C 171.889 80.833,172.000 80.922,172.000 81.167 C 172.000 81.389,172.111 81.500,172.333 81.500 C 172.556 81.500,172.667 81.611,172.667 81.833 C 172.667 82.056,172.778 82.167,173.000 82.167 C 173.222 82.167,173.333 82.278,173.333 82.500 C 173.333 82.778,173.444 82.833,174.000 82.833 C 174.556 82.833,174.667 82.889,174.667 83.167 C 174.667 83.411,174.778 83.500,175.083 83.500 C 175.383 83.500,175.500 83.590,175.500 83.819 C 175.500 84.062,175.662 84.165,176.184 84.253 C 176.561 84.317,177.011 84.511,177.184 84.684 C 177.397 84.897,177.736 85.000,178.224 85.000 C 178.737 85.000,179.037 85.097,179.250 85.333 C 179.506 85.616,179.763 85.667,180.937 85.667 C 182.151 85.667,182.344 85.708,182.500 86.000 C 182.674 86.324,182.849 86.333,188.995 86.333 C 195.164 86.333,195.313 86.326,195.417 86.000 C 195.511 85.702,195.669 85.667,196.914 85.667 C 198.449 85.667,198.833 85.580,198.833 85.232 C 198.833 85.065,199.064 85.000,199.653 85.000 C 200.620 85.000,201.000 84.880,201.000 84.575 C 201.000 84.432,201.254 84.334,201.708 84.301 C 202.297 84.259,202.426 84.187,202.470 83.875 C 202.515 83.559,202.626 83.500,203.178 83.500 C 203.722 83.500,203.833 83.443,203.833 83.167 C 203.833 82.944,203.944 82.833,204.167 82.833 C 204.389 82.833,204.500 82.722,204.500 82.500 C 204.500 82.222,204.611 82.167,205.167 82.167 C 205.722 82.167,205.833 82.111,205.833 81.833 C 205.833 81.606,205.944 81.500,206.182 81.500 C 206.391 81.500,206.566 81.366,206.618 81.167 C 206.666 80.983,206.811 80.833,206.940 80.833 C 207.069 80.833,207.242 80.656,207.325 80.439 C 207.407 80.223,207.593 80.000,207.737 79.945 C 207.908 79.879,208.000 79.637,208.000 79.255 C 208.000 78.778,208.063 78.667,208.333 78.667 C 208.556 78.667,208.667 78.556,208.667 78.333 C 208.667 78.111,208.778 78.000,209.000 78.000 C 209.278 78.000,209.333 77.889,209.333 77.333 C 209.333 76.778,209.389 76.667,209.667 76.667 C 209.946 76.667,210.000 76.556,210.000 75.984 C 210.000 75.453,210.070 75.284,210.318 75.219 C 210.677 75.125,210.828 74.705,210.831 73.792 C 210.833 73.374,210.909 73.167,211.063 73.167 C 211.357 73.167,211.500 72.432,211.500 70.915 C 211.500 69.846,211.539 69.695,211.833 69.618 C 212.164 69.532,212.167 69.391,212.167 51.597 L 212.167 33.663 205.625 33.706 L 199.083 33.750 199.041 49.708 C 198.999 65.528,198.995 65.667,198.666 65.667 C 198.361 65.667,198.333 65.779,198.333 67.000 C 198.333 68.222,198.306 68.333,198.000 68.333 C 197.716 68.333,197.667 68.444,197.667 69.083 C 197.667 69.722,197.617 69.833,197.333 69.833 C 197.114 69.833,197.000 69.944,197.000 70.158 C 197.000 70.337,196.902 70.543,196.783 70.617 C 196.664 70.690,196.397 70.994,196.189 71.292 C 195.932 71.660,195.676 71.833,195.390 71.833 C 195.109 71.833,194.940 71.944,194.882 72.167 C 194.813 72.428,194.654 72.500,194.147 72.500 C 193.611 72.500,193.500 72.557,193.500 72.833 C 193.500 73.158,193.389 73.167,189.250 73.167 C 185.111 73.167,185.000 73.158,185.000 72.833 C 185.000 72.556,184.889 72.500,184.333 72.500 C 183.778 72.500,183.667 72.444,183.667 72.167 C 183.667 71.960,183.556 71.833,183.373 71.833 C 183.212 71.833,182.987 71.683,182.872 71.500 C 182.758 71.317,182.552 71.167,182.415 71.167 C 182.278 71.167,182.167 71.018,182.167 70.833 C 182.167 70.648,182.056 70.500,181.917 70.500 C 181.778 70.500,181.667 70.352,181.667 70.167 C 181.667 69.922,181.556 69.833,181.250 69.833 C 180.867 69.833,180.833 69.772,180.833 69.083 C 180.833 68.444,180.784 68.333,180.500 68.333 C 180.194 68.333,180.167 68.222,180.167 67.000 C 180.167 65.778,180.139 65.667,179.833 65.667 C 179.502 65.667,179.500 65.556,179.500 49.667 L 179.500 33.667 172.917 33.667 L 166.333 33.667 166.333 51.599 M236.208 35.944 C 236.094 35.990,236.000 36.134,236.000 36.264 C 236.000 36.453,235.647 36.500,234.234 36.500 C 232.609 36.500,232.462 36.526,232.382 36.833 C 232.307 37.119,232.154 37.167,231.314 37.167 C 230.444 37.167,230.333 37.204,230.333 37.500 C 230.333 37.793,230.222 37.833,229.418 37.833 C 228.683 37.833,228.462 37.899,228.295 38.167 C 228.180 38.350,227.923 38.500,227.724 38.500 C 227.193 38.500,226.833 38.671,226.833 38.923 C 226.833 39.045,226.693 39.189,226.522 39.243 C 226.351 39.297,226.077 39.490,225.913 39.671 C 225.749 39.852,225.508 40.000,225.378 40.000 C 225.108 40.000,224.167 40.888,224.167 41.143 C 224.167 41.235,224.021 41.357,223.842 41.414 C 223.663 41.471,223.471 41.663,223.414 41.842 C 223.357 42.021,223.211 42.167,223.090 42.167 C 222.849 42.167,222.667 42.523,222.667 42.994 C 222.667 43.159,222.517 43.334,222.333 43.382 C 222.134 43.434,222.000 43.609,222.000 43.818 C 222.000 44.049,221.894 44.167,221.684 44.167 C 221.342 44.167,221.167 44.475,221.167 45.078 C 221.167 45.321,221.045 45.493,220.833 45.548 C 220.615 45.605,220.500 45.776,220.500 46.042 C 220.500 46.265,220.350 46.584,220.167 46.750 C 219.960 46.937,219.833 47.263,219.833 47.609 C 219.833 47.944,219.700 48.300,219.500 48.500 C 219.236 48.764,219.167 49.056,219.167 49.897 C 219.167 50.821,219.123 50.973,218.833 51.048 C 218.528 51.128,218.500 51.276,218.500 52.781 C 218.500 54.220,218.458 54.462,218.167 54.711 C 217.845 54.987,217.833 55.203,217.833 60.915 C 217.833 66.722,217.840 66.833,218.167 66.833 C 218.482 66.833,218.500 66.944,218.500 68.917 C 218.500 70.889,218.518 71.000,218.833 71.000 C 219.132 71.000,219.167 71.111,219.167 72.083 C 219.167 72.944,219.235 73.235,219.500 73.500 C 219.725 73.725,219.833 74.056,219.833 74.516 C 219.833 75.058,219.902 75.216,220.167 75.285 C 220.420 75.351,220.500 75.512,220.500 75.954 C 220.500 76.331,220.646 76.709,220.917 77.030 C 221.146 77.303,221.333 77.632,221.333 77.763 C 221.333 77.893,221.483 78.000,221.667 78.000 C 221.938 78.000,222.000 78.111,222.000 78.599 C 222.000 79.058,222.078 79.218,222.333 79.285 C 222.518 79.333,222.667 79.512,222.667 79.686 C 222.667 79.889,222.785 80.000,223.000 80.000 C 223.227 80.000,223.333 80.111,223.333 80.349 C 223.333 80.552,223.466 80.733,223.651 80.781 C 223.826 80.827,224.007 81.007,224.052 81.182 C 224.098 81.357,224.255 81.500,224.401 81.500 C 224.556 81.500,224.667 81.639,224.667 81.833 C 224.667 82.117,224.778 82.167,225.417 82.167 C 226.056 82.167,226.167 82.216,226.167 82.500 C 226.167 82.722,226.278 82.833,226.500 82.833 C 226.722 82.833,226.833 82.944,226.833 83.167 C 226.833 83.389,226.944 83.500,227.167 83.500 C 227.350 83.500,227.500 83.570,227.500 83.656 C 227.500 83.742,227.800 83.981,228.167 84.187 C 228.533 84.393,228.833 84.616,228.833 84.683 C 228.833 84.749,229.141 84.856,229.518 84.920 C 229.894 84.983,230.344 85.177,230.518 85.351 C 230.734 85.567,231.070 85.667,231.583 85.667 C 232.111 85.667,232.432 85.765,232.667 86.000 C 232.948 86.282,233.222 86.333,234.432 86.333 C 235.612 86.333,235.939 86.392,236.288 86.667 C 236.701 86.992,236.964 87.000,246.910 87.000 L 257.109 87.000 257.513 86.570 L 257.917 86.140 257.917 79.182 L 257.917 72.225 257.417 71.696 L 256.918 71.167 247.416 71.167 C 238.094 71.167,237.910 71.160,237.705 70.833 C 237.538 70.566,237.317 70.500,236.582 70.500 C 235.889 70.500,235.586 70.419,235.333 70.167 C 235.150 69.983,234.850 69.833,234.667 69.833 C 234.478 69.833,234.333 69.722,234.333 69.578 C 234.333 69.438,234.202 69.277,234.042 69.220 C 233.625 69.073,233.000 68.479,233.000 68.230 C 233.000 68.114,232.856 67.918,232.681 67.795 C 232.506 67.673,232.310 67.293,232.246 66.953 C 232.178 66.591,232.033 66.333,231.898 66.333 C 231.722 66.333,231.666 66.043,231.663 65.125 C 231.658 63.658,231.445 62.659,231.094 62.463 C 230.680 62.231,230.721 60.068,231.141 59.958 C 231.515 59.861,231.667 59.200,231.667 57.664 C 231.667 56.848,231.732 56.511,231.901 56.446 C 232.030 56.396,232.190 56.107,232.257 55.803 C 232.323 55.499,232.518 55.152,232.689 55.032 C 232.860 54.912,233.000 54.723,233.000 54.611 C 233.000 54.333,234.439 53.000,234.739 53.000 C 234.872 53.000,235.079 52.861,235.199 52.691 C 235.332 52.502,235.734 52.335,236.234 52.260 C 236.684 52.193,237.258 51.986,237.511 51.799 C 237.890 51.518,238.370 51.433,240.277 51.308 C 241.545 51.225,243.063 51.115,243.649 51.063 C 244.354 51.001,244.847 51.040,245.106 51.179 C 245.408 51.341,245.594 51.344,245.923 51.194 C 246.492 50.935,255.044 50.923,255.526 51.181 C 255.862 51.360,256.286 51.266,257.293 50.788 C 257.953 50.474,258.018 49.714,257.966 42.930 C 257.920 36.913,257.898 36.514,257.599 36.184 C 257.295 35.848,237.010 35.620,236.208 35.944 M264.012 36.272 C 263.506 36.915,263.466 50.504,263.969 50.866 C 264.136 50.985,264.321 51.215,264.381 51.375 C 264.456 51.577,264.670 51.667,265.078 51.667 L 265.667 51.667 265.667 61.557 L 265.667 71.446 265.242 71.640 C 265.009 71.746,264.714 71.833,264.588 71.833 C 263.574 71.833,263.052 85.747,264.031 86.660 C 264.599 87.189,284.972 87.195,285.500 86.667 C 285.787 86.380,286.056 86.333,287.432 86.333 C 288.891 86.333,289.039 86.304,289.118 86.000 C 289.193 85.714,289.346 85.667,290.202 85.667 C 291.058 85.667,291.210 85.620,291.285 85.333 C 291.359 85.051,291.512 85.000,292.285 85.000 C 293.046 85.000,293.212 84.947,293.282 84.679 C 293.340 84.458,293.571 84.323,294.016 84.247 C 294.507 84.164,294.667 84.059,294.667 83.819 C 294.667 83.599,294.784 83.500,295.043 83.500 C 295.250 83.500,295.513 83.350,295.628 83.167 C 295.742 82.983,295.967 82.833,296.126 82.832 C 296.446 82.830,297.500 81.827,297.500 81.524 C 297.500 81.419,297.581 81.333,297.679 81.333 C 297.974 81.333,298.808 80.408,298.922 79.954 C 298.981 79.722,299.172 79.494,299.347 79.448 C 299.534 79.399,299.667 79.219,299.667 79.016 C 299.667 78.778,299.773 78.667,300.000 78.667 C 300.278 78.667,300.333 78.556,300.333 78.000 C 300.333 77.444,300.389 77.333,300.667 77.333 C 300.922 77.333,301.000 77.222,301.000 76.859 C 301.000 76.597,301.149 76.250,301.333 76.083 C 301.555 75.883,301.667 75.570,301.667 75.152 C 301.667 74.682,301.746 74.497,301.980 74.423 C 302.323 74.314,302.500 73.694,302.500 72.600 C 302.500 72.114,302.599 71.822,302.833 71.622 C 303.122 71.375,303.167 71.130,303.167 69.812 C 303.167 68.552,303.217 68.250,303.458 68.074 C 303.724 67.879,303.754 67.370,303.799 62.305 C 303.850 56.506,303.819 56.000,303.413 56.000 C 303.212 56.000,303.166 55.688,303.164 54.292 C 303.162 52.374,303.066 51.833,302.731 51.833 C 302.562 51.833,302.500 51.584,302.500 50.906 C 302.500 49.958,302.295 49.354,301.892 49.117 C 301.762 49.040,301.667 48.700,301.667 48.309 C 301.667 47.776,301.597 47.617,301.333 47.548 C 301.072 47.480,301.000 47.321,301.000 46.814 C 301.000 46.389,300.886 46.052,300.667 45.833 C 300.483 45.650,300.333 45.350,300.333 45.167 C 300.333 44.952,300.222 44.833,300.021 44.833 C 299.786 44.833,299.683 44.669,299.603 44.167 C 299.533 43.730,299.409 43.500,299.244 43.500 C 299.105 43.500,298.920 43.313,298.833 43.083 C 298.746 42.854,298.603 42.667,298.515 42.667 C 298.428 42.667,298.308 42.517,298.250 42.333 C 298.192 42.150,297.999 42.000,297.822 42.000 C 297.611 42.000,297.500 41.885,297.500 41.667 C 297.500 41.438,297.389 41.333,297.147 41.333 C 296.871 41.333,296.810 41.252,296.866 40.958 C 296.933 40.610,296.888 40.587,296.219 40.642 C 295.581 40.694,295.500 40.661,295.500 40.350 C 295.500 40.118,295.394 40.000,295.186 40.000 C 295.013 40.000,294.833 39.851,294.785 39.668 C 294.737 39.485,294.560 39.282,294.391 39.218 C 294.222 39.153,294.008 39.039,293.917 38.964 C 293.246 38.418,292.325 37.945,291.795 37.874 C 291.445 37.827,291.167 37.696,291.167 37.579 C 291.167 37.301,290.783 37.167,289.986 37.167 C 289.556 37.167,289.220 37.053,289.000 36.833 C 288.716 36.549,288.444 36.500,287.167 36.500 C 285.889 36.500,285.617 36.451,285.333 36.167 C 285.007 35.841,284.778 35.833,274.679 35.833 L 264.358 35.833 264.012 36.272 M283.833 51.899 C 283.833 52.210,284.204 52.333,285.143 52.333 C 285.720 52.333,286.001 52.421,286.211 52.667 C 286.368 52.850,286.642 53.000,286.820 53.000 C 286.999 53.000,287.192 53.150,287.250 53.333 C 287.308 53.517,287.444 53.669,287.553 53.672 C 287.869 53.680,288.667 54.458,288.667 54.758 C 288.667 54.908,288.817 55.070,289.000 55.118 C 289.253 55.184,289.333 55.346,289.333 55.785 C 289.333 56.224,289.414 56.386,289.667 56.452 C 289.971 56.531,290.000 56.679,290.000 58.164 C 290.000 59.536,290.052 59.854,290.333 60.212 C 290.749 60.740,290.830 62.833,290.434 62.833 C 290.084 62.833,290.000 63.219,290.000 64.828 C 290.000 66.154,289.968 66.303,289.667 66.382 C 289.413 66.448,289.333 66.609,289.333 67.056 C 289.333 67.498,289.250 67.671,289.000 67.750 C 288.817 67.808,288.667 67.960,288.667 68.087 C 288.667 68.354,287.993 69.070,287.600 69.221 C 287.453 69.277,287.333 69.438,287.333 69.578 C 287.333 69.718,287.197 69.833,287.031 69.833 C 286.865 69.833,286.581 69.972,286.399 70.141 C 286.217 70.310,285.727 70.487,285.309 70.535 C 284.891 70.582,284.325 70.786,284.051 70.989 C 283.625 71.303,283.213 71.381,281.234 71.518 C 279.960 71.606,278.440 71.720,277.857 71.771 C 277.192 71.829,276.729 71.796,276.615 71.682 C 276.387 71.454,275.721 71.444,275.583 71.667 C 275.527 71.758,275.147 71.833,274.740 71.833 L 274.000 71.833 274.000 61.750 L 274.000 51.667 278.917 51.667 C 283.008 51.667,283.833 51.706,283.833 51.899 M327.691 57.516 C 327.852 57.758,328.161 57.892,328.698 57.953 C 329.270 58.017,329.493 58.122,329.554 58.353 C 329.599 58.527,329.783 58.667,329.965 58.667 C 330.154 58.667,330.332 58.808,330.382 59.000 C 330.430 59.183,330.588 59.333,330.734 59.333 C 330.880 59.333,331.000 59.441,331.000 59.572 C 331.000 59.703,331.150 59.858,331.333 59.917 C 331.517 59.975,331.667 60.167,331.667 60.345 C 331.667 60.556,331.782 60.667,332.000 60.667 C 332.278 60.667,332.333 60.778,332.333 61.333 C 332.333 61.889,332.389 62.000,332.667 62.000 C 332.963 62.000,333.000 62.111,333.000 63.007 C 333.000 63.784,333.076 64.096,333.333 64.372 C 333.627 64.687,333.667 64.960,333.667 66.672 C 333.667 68.403,333.630 68.648,333.333 68.917 C 333.074 69.151,333.000 69.430,333.000 70.173 C 333.000 70.988,332.951 71.141,332.667 71.215 C 332.411 71.282,332.333 71.442,332.333 71.901 C 332.333 72.389,332.271 72.500,332.000 72.500 C 331.785 72.500,331.667 72.611,331.667 72.814 C 331.667 72.988,331.518 73.167,331.333 73.215 C 331.150 73.263,331.000 73.413,331.000 73.548 C 331.000 73.684,330.850 73.834,330.667 73.882 C 330.467 73.934,330.333 74.109,330.333 74.318 C 330.333 74.613,330.232 74.667,329.678 74.667 C 329.169 74.667,328.999 74.741,328.917 75.000 C 328.832 75.266,328.664 75.333,328.086 75.333 C 327.202 75.333,326.833 75.461,326.833 75.768 C 326.833 76.188,324.052 76.092,323.917 75.667 C 323.827 75.384,323.664 75.333,322.842 75.333 C 322.012 75.333,321.860 75.285,321.785 75.000 C 321.718 74.745,321.558 74.667,321.099 74.667 C 320.679 74.667,320.500 74.592,320.500 74.418 C 320.500 74.281,320.350 74.076,320.167 73.961 C 319.701 73.671,319.635 58.667,320.099 58.667 C 320.245 58.667,320.404 58.517,320.452 58.333 C 320.517 58.084,320.679 58.000,321.092 58.000 C 321.842 58.000,322.500 57.729,322.500 57.421 C 322.500 56.963,327.384 57.053,327.691 57.516 " stroke="none" fill="#645c54" fill-rule="evenodd"></path><path id="path2" d="M110.000 25.528 C 110.000 25.635,110.049 25.673,110.110 25.613 C 110.170 25.552,110.320 25.586,110.443 25.689 C 110.584 25.805,110.667 25.811,110.667 25.705 C 110.667 25.612,110.548 25.490,110.403 25.434 C 110.041 25.295,110.000 25.305,110.000 25.528 M85.745 64.342 C 85.586 64.598,85.803 64.763,86.017 64.549 C 86.137 64.430,86.140 64.336,86.026 64.266 C 85.933 64.208,85.806 64.242,85.745 64.342 M138.500 67.823 C 138.500 68.099,138.743 68.139,138.965 67.899 C 139.143 67.706,139.122 67.667,138.840 67.667 C 138.653 67.667,138.500 67.737,138.500 67.823 M138.407 74.683 C 138.262 74.916,138.626 75.000,138.812 74.776 C 138.950 74.610,138.932 74.556,138.740 74.556 C 138.600 74.556,138.450 74.613,138.407 74.683 " stroke="none" fill="#f05854" fill-rule="evenodd"></path><path id="path3" d="M110.000 25.528 C 110.000 25.635,110.049 25.673,110.110 25.613 C 110.170 25.552,110.320 25.586,110.443 25.689 C 110.584 25.805,110.667 25.811,110.667 25.705 C 110.667 25.612,110.548 25.490,110.403 25.434 C 110.041 25.295,110.000 25.305,110.000 25.528 M85.745 64.342 C 85.586 64.598,85.803 64.763,86.017 64.549 C 86.137 64.430,86.140 64.336,86.026 64.266 C 85.933 64.208,85.806 64.242,85.745 64.342 M138.500 67.823 C 138.500 68.099,138.743 68.139,138.965 67.899 C 139.143 67.706,139.122 67.667,138.840 67.667 C 138.653 67.667,138.500 67.737,138.500 67.823 M138.407 74.683 C 138.262 74.916,138.626 75.000,138.812 74.776 C 138.950 74.610,138.932 74.556,138.740 74.556 C 138.600 74.556,138.450 74.613,138.407 74.683 " stroke="none" fill="#f05854" fill-rule="evenodd"></path><path id="path4" d="M110.000 25.528 C 110.000 25.635,110.049 25.673,110.110 25.613 C 110.170 25.552,110.320 25.586,110.443 25.689 C 110.584 25.805,110.667 25.811,110.667 25.705 C 110.667 25.612,110.548 25.490,110.403 25.434 C 110.041 25.295,110.000 25.305,110.000 25.528 M85.745 64.342 C 85.586 64.598,85.803 64.763,86.017 64.549 C 86.137 64.430,86.140 64.336,86.026 64.266 C 85.933 64.208,85.806 64.242,85.745 64.342 M138.500 67.823 C 138.500 68.099,138.743 68.139,138.965 67.899 C 139.143 67.706,139.122 67.667,138.840 67.667 C 138.653 67.667,138.500 67.737,138.500 67.823 M138.407 74.683 C 138.262 74.916,138.626 75.000,138.812 74.776 C 138.950 74.610,138.932 74.556,138.740 74.556 C 138.600 74.556,138.450 74.613,138.407 74.683 " stroke="none" fill="#f05854" fill-rule="evenodd"></path><path id="path5" d="M110.000 25.528 C 110.000 25.635,110.049 25.673,110.110 25.613 C 110.170 25.552,110.320 25.586,110.443 25.689 C 110.584 25.805,110.667 25.811,110.667 25.705 C 110.667 25.612,110.548 25.490,110.403 25.434 C 110.041 25.295,110.000 25.305,110.000 25.528 M85.745 64.342 C 85.586 64.598,85.803 64.763,86.017 64.549 C 86.137 64.430,86.140 64.336,86.026 64.266 C 85.933 64.208,85.806 64.242,85.745 64.342 M138.500 67.823 C 138.500 68.099,138.743 68.139,138.965 67.899 C 139.143 67.706,139.122 67.667,138.840 67.667 C 138.653 67.667,138.500 67.737,138.500 67.823 M138.407 74.683 C 138.262 74.916,138.626 75.000,138.812 74.776 C 138.950 74.610,138.932 74.556,138.740 74.556 C 138.600 74.556,138.450 74.613,138.407 74.683 " stroke="none" fill="#f05854" fill-rule="evenodd"></path></g></svg>